<svg xmlns="http://www.w3.org/2000/svg" width="284.693" height="49.692" viewBox="0 0 284.693 49.692">
  <g id="Group_11423" data-name="Group 11423" transform="translate(-30.175 2332.347)">
    <path id="Path_5556" data-name="Path 5556" d="M108.7-2284.067H84.277a1.386,1.386,0,0,1-1.568-1.568v-44.882a1.386,1.386,0,0,1,1.568-1.568H108.7q1.492,0,1.493,1.568v5.078q0,1.568-1.493,1.568H93.089q-.9,0-.9.821v9.708c0,.549.3.822.9.822h12.77a1.386,1.386,0,0,1,1.568,1.568v5.078a1.386,1.386,0,0,1-1.568,1.568H93.089q-.9,0-.9.822v10.38c0,.549.3.822.9.822H108.7q1.492,0,1.493,1.568v5.078Q110.191-2284.067,108.7-2284.067Z" transform="translate(-11.238)" fill="#ffc226"/>
    <path id="Path_5557" data-name="Path 5557" d="M132.353-2284.067h-7.169q-1.344,0-.9-1.568l11.8-44.882a2.144,2.144,0,0,1,2.24-1.568h9.931a2.01,2.01,0,0,1,2.241,1.568l11.8,44.882q.448,1.568-.9,1.568h-7.169a1.464,1.464,0,0,1-1.12-.336,2.545,2.545,0,0,1-.448-1.232l-2.091-8.215H136.011l-2.09,8.215a2.3,2.3,0,0,1-.486,1.232A1.484,1.484,0,0,1,132.353-2284.067Zm10.829-38.982-5.377,21.582h11.052l-5.378-21.582Z" transform="translate(-20.108)" fill="#ffc226"/>
    <path id="Path_5558" data-name="Path 5558" d="M207.264-2284.067H182.7a1.387,1.387,0,0,1-1.569-1.568v-44.882a1.387,1.387,0,0,1,1.569-1.568h6.347a1.387,1.387,0,0,1,1.569,1.568v37.339q0,.822.9.822h15.757q1.5,0,1.494,1.643v5.078Q208.758-2284.067,207.264-2284.067Z" transform="translate(-32.291)" fill="#ffc226"/>
    <g id="yn" transform="translate(188.151 -2332.085)" style="isolation: isolate">
      <g id="Group_11422" data-name="Group 11422" style="isolation: isolate">
        <path id="Path_5559" data-name="Path 5559" d="M252.864-2284.067h-6.348a1.386,1.386,0,0,1-1.568-1.568v-15.981l-13.666-28.826a1.122,1.122,0,0,1,.037-1.158,1.147,1.147,0,0,1,1.009-.485h7.916q1.193,0,1.792,1.568l7.468,18.147h.523l7.318-18.147q.521-1.568,1.792-1.568h7.916a1.266,1.266,0,0,1,1.082.448,1.094,1.094,0,0,1-.037,1.195l-13.666,28.826v15.981A1.386,1.386,0,0,1,252.864-2284.067Z" transform="translate(-231.141 2332.085)" fill="#2c3051"/>
        <path id="Path_5560" data-name="Path 5560" d="M294.187-2284.067h-6.2a1.386,1.386,0,0,1-1.568-1.568v-44.882a1.386,1.386,0,0,1,1.568-1.568h5.6a2.107,2.107,0,0,1,2.091,1.046l15.085,28.3h.3v-27.781a1.386,1.386,0,0,1,1.568-1.568h6.2a1.387,1.387,0,0,1,1.569,1.568v44.882a1.387,1.387,0,0,1-1.569,1.568h-5.451a2.5,2.5,0,0,1-2.39-1.493l-14.936-27.781h-.3v27.706A1.386,1.386,0,0,1,294.187-2284.067Z" transform="translate(-242.966 2332.085)" fill="#2c3051"/>
      </g>
    </g>
    <g id="Group_11418" data-name="Group 11418" transform="translate(274.51 -2331.84)">
      <g id="Group_11413" data-name="Group 11413" transform="translate(8.046 0.071)">
        <path id="Path_5552" data-name="Path 5552" d="M360.255-2311.61q5.431-5.537,10.962-10.976a5.8,5.8,0,0,1,8.668.058q1.582,1.565,3.157,3.139v-9.947a12.765,12.765,0,0,0-7.5-2.346,12.609,12.609,0,0,0-8.961,3.581c-3.96,3.909-7.92,7.821-11.8,11.805a13.017,13.017,0,0,0,.549,18.4c.054.05.108.1.164.151.619.558,1.022.581,1.591-.013,1.018-1.07,2.032-2.155,3.144-3.121,1-.865.893-1.459,0-2.378a5.786,5.786,0,0,1-.145-8.182C360.138-2311.5,360.2-2311.554,360.255-2311.61Z" transform="translate(-351.236 2331.683)" fill="#ffc226" stroke="#ffc226" stroke-linejoin="round" stroke-width="1"/>
        <path id="Path_5553" data-name="Path 5553" d="M386.921-2285.554l-2.9,2.881c-2.927,2.9-6.038,2.957-9.087.126-.733-.68-1.179-.613-1.808.064-1.039,1.117-2.115,2.206-3.236,3.24-.781.72-.643,1.23.042,1.94a13.127,13.127,0,0,0,16.989,1.729Z" transform="translate(-355.113 2321.815)" fill="#ffc226" stroke="#ffc226" stroke-linejoin="round" stroke-width="1"/>
      </g>
      <g id="Group_11414" data-name="Group 11414" transform="translate(0 0)">
        <path id="Path_5554" data-name="Path 5554" d="M341-2319.152q1.41-1.409,2.818-2.819c3.3-3.288,6.01-3.4,9.5-.348.629.55,1.038.539,1.6-.049q1.679-1.768,3.446-3.449c.666-.629.556-1.084-.025-1.719A12.918,12.918,0,0,0,341-2329.157Z" transform="translate(-341 2331.773)" fill="#2c3051" stroke="#2c3051" stroke-linejoin="round" stroke-width="1"/>
        <path id="Path_5555" data-name="Path 5555" d="M368.938-2313.066c-.748-.736-1.231-.713-1.915.032a42.067,42.067,0,0,1-3.049,3.011c-.836.742-.935,1.277-.1,2.159,2.673,2.821,2.563,6.11-.216,8.891q-5.219,5.23-10.476,10.418c-2.838,2.806-6.1,2.8-8.954-.038q-1.618-1.6-3.229-3.218v10.083a13.018,13.018,0,0,0,16.966-1.354c3.8-3.726,7.535-7.513,11.286-11.286a12.635,12.635,0,0,0,3.7-9.729A12.272,12.272,0,0,0,368.938-2313.066Z" transform="translate(-341 2327.887)" fill="#2c3051" stroke="#2c3051" stroke-linejoin="round" stroke-width="1"/>
      </g>
    </g>
    <path id="Path_5561" data-name="Path 5561" d="M59.263-2328.912q-3.25-3.172-9.074-3.173H31.743a1.386,1.386,0,0,0-1.568,1.568v6.646H48.621a4.7,4.7,0,0,1,3.4,1.008,4.7,4.7,0,0,1,1.008,3.4v22.777a4.7,4.7,0,0,1-1.008,3.4,4.7,4.7,0,0,1-3.4,1.008H30.175v6.646a1.386,1.386,0,0,0,1.568,1.568H50.189q5.825,0,9.074-3.174t3.249-9v-23.673Q62.511-2325.737,59.263-2328.912Z" transform="translate(0)" fill="#ffc226"/>
    <rect id="Rectangle_1885" data-name="Rectangle 1885" width="9.484" height="29.946" transform="translate(30.175 -2323.049)" fill="#2c3051"/>
  </g>
</svg>
